<svg width="54" height="54" viewBox="0 0 54 54" fill="none" xmlns="http://www.w3.org/2000/svg">
<mask id="path-1-inside-1_721_462" fill="white">
<path d="M0 0H54V54H0V0Z"/>
</mask>
<path d="M1 54V0H-1V54H1Z" fill="#E7E7E7" mask="url(#path-1-inside-1_721_462)"/>
<path d="M34 21.8H20C19.6 21.8 19.2 21.4 19.2 21C19.2 20.6 19.6 20.2 20 20.2H34C34.4 20.2 34.8 20.5 34.8 21C34.8 21.5 34.4 21.8 34 21.8ZM34.8 27C34.8 26.6 34.5 26.2 34 26.2H20C19.6 26.2 19.2 26.6 19.2 27C19.2 27.4 19.6 27.8 20 27.8H34C34.4 27.8 34.8 27.4 34.8 27ZM34.8 33C34.8 32.6 34.5 32.2 34 32.2H20C19.6 32.2 19.2 32.5 19.2 33C19.2 33.5 19.5 33.8 20 33.8H34C34.4 33.8 34.8 33.4 34.8 33Z" fill="#2F2F2F"/>
</svg>
