<svg width="16" height="16" viewBox="0 0 16 16" fill="none" xmlns="http://www.w3.org/2000/svg">
<path fill-rule="evenodd" clip-rule="evenodd" d="M1.46967 14.5303C1.17678 14.2374 1.17678 13.7626 1.46967 13.4697L13.4697 1.46967C13.7626 1.17678 14.2374 1.17678 14.5303 1.46967C14.8232 1.76256 14.8232 2.23744 14.5303 2.53033L2.53033 14.5303C2.23744 14.8232 1.76256 14.8232 1.46967 14.5303Z" fill="#2F2F2F"/>
<path fill-rule="evenodd" clip-rule="evenodd" d="M0.46967 1.46967C0.762563 1.17678 1.23744 1.17678 1.53033 1.46967L14.5303 13.4697C14.8232 13.7626 14.8232 14.2374 14.5303 14.5303C14.2374 14.8232 13.7626 14.8232 13.4697 14.5303L0.46967 2.53033C0.176777 2.23744 0.176777 1.76256 0.46967 1.46967Z" fill="#2F2F2F"/>
</svg>
