<svg width="16" height="16" viewBox="0 0 16 16" fill="none" xmlns="http://www.w3.org/2000/svg">
<path d="M8.84275 3.91454C8.10465 3.66143 7.38309 3.7027 6.67804 4.03834C5.97299 4.37398 5.49929 4.89394 5.25693 5.59824C5.21286 5.80733 5.22939 6.00541 5.3065 6.19249C5.38362 6.37957 5.52683 6.48962 5.73614 6.52263C5.9124 6.58866 6.09417 6.57765 6.28145 6.48962C6.46873 6.40158 6.59542 6.26953 6.66151 6.09345C6.80473 5.7413 7.04984 5.47719 7.39686 5.30112C7.74387 5.12504 8.11016 5.10854 8.49574 5.2516C8.77115 5.36164 8.99147 5.53221 9.15672 5.76331C9.32196 5.99441 9.40458 6.26952 9.40458 6.58866C9.40458 6.94081 9.18701 7.24893 8.75187 7.51305C8.31672 7.77716 7.99449 7.96423 7.78518 8.07428C7.60892 8.14031 7.47672 8.25586 7.38859 8.42093C7.30046 8.586 7.29495 8.77307 7.37207 8.98216C7.40512 9.12522 7.48223 9.24352 7.60341 9.33706C7.72459 9.4306 7.85679 9.47737 8 9.47737C8.03305 9.47737 8.06885 9.47462 8.10741 9.46912C8.14597 9.46361 8.18177 9.44436 8.21482 9.41134C8.28092 9.38933 8.45718 9.3178 8.7436 9.19675C9.01901 9.08671 9.31094 8.91889 9.6194 8.69329C9.92786 8.4677 10.2033 8.18433 10.4456 7.84318C10.699 7.51304 10.8257 7.11688 10.8257 6.65469C10.7816 6.02742 10.5806 5.46619 10.2225 4.97098C9.86452 4.47577 9.40459 4.12363 8.84275 3.91454ZM8 0.25C6.92039 0.25 5.91241 0.453583 4.97601 0.860756C4.0286 1.25692 3.20514 1.80715 2.5056 2.51145C1.80606 3.21575 1.25249 4.03558 0.844883 4.97098C0.448292 5.91738 0.25 6.92429 0.25 7.99175C0.25 9.0702 0.448292 10.0771 0.844883 11.0125C1.25249 11.9589 1.80606 12.7815 2.5056 13.4803C3.20514 14.1791 4.0286 14.7321 4.97601 15.1392C5.91241 15.5464 6.92039 15.75 8 15.75C9.07961 15.75 10.0876 15.5464 11.024 15.1392C11.9714 14.7321 12.7949 14.1791 13.4944 13.4803C14.1939 12.7815 14.7475 11.9589 15.1551 11.0125C15.5517 10.0771 15.75 9.0702 15.75 7.99175C15.75 6.92429 15.5517 5.91738 15.1551 4.97098C14.7475 4.03558 14.1939 3.21575 13.4944 2.51145C12.7949 1.80715 11.9714 1.25692 11.024 0.860756C10.0876 0.453583 9.07961 0.25 8 0.25ZM8 14.3304C7.11869 14.3304 6.29247 14.1653 5.52132 13.8352C4.75017 13.5051 4.07818 13.0539 3.50533 12.4816C2.93248 11.9094 2.48081 11.2381 2.15032 10.4678C1.81983 9.69746 1.65458 8.87212 1.65458 7.99175C1.65458 7.11137 1.81983 6.28604 2.15032 5.51571C2.48081 4.74538 2.93248 4.07411 3.50533 3.50186C4.07818 2.92962 4.75017 2.47844 5.52132 2.1483C6.29247 1.81816 7.11869 1.65309 8 1.65309C8.88131 1.65309 9.70753 1.81816 10.4787 2.1483C11.2498 2.47844 11.9218 2.92962 12.4947 3.50186C13.0675 4.07411 13.5192 4.74538 13.8497 5.51571C14.1802 6.28604 14.3454 7.11137 14.3454 7.99175C14.3454 8.87212 14.1802 9.69746 13.8497 10.4678C13.5192 11.2381 13.0675 11.9094 12.4947 12.4816C11.9218 13.0539 11.2498 13.5051 10.4787 13.8352C9.70753 14.1653 8.88131 14.3304 8 14.3304ZM7.50426 11.029C7.43817 11.095 7.38584 11.1666 7.34728 11.2436C7.30872 11.3206 7.28945 11.4142 7.28945 11.5242C7.28945 11.6233 7.30872 11.7113 7.34728 11.7883C7.38584 11.8654 7.43817 11.9424 7.50426 12.0194C7.58138 12.0855 7.65574 12.135 7.72735 12.168C7.79895 12.201 7.88984 12.2175 8 12.2175C8.11016 12.2175 8.20105 12.201 8.27265 12.168C8.34426 12.135 8.41862 12.0855 8.49574 12.0194C8.56183 11.9424 8.61416 11.8571 8.65272 11.7636C8.69128 11.67 8.71056 11.5903 8.71056 11.5242C8.71056 11.4472 8.69128 11.3619 8.65272 11.2684C8.61416 11.1748 8.56183 11.095 8.49574 11.029C8.35252 10.886 8.18728 10.8144 8 10.8144C7.81272 10.8144 7.64748 10.886 7.50426 11.029Z" fill="#2F2F2F"/>
</svg>
