<svg width="16" height="16" viewBox="0 0 16 16" fill="none" xmlns="http://www.w3.org/2000/svg">
<path d="M5.90739 13.6049H3.10082C2.89293 13.6049 2.72607 13.5393 2.60023 13.408C2.4744 13.2767 2.41149 13.1071 2.41149 12.8992V3.10082C2.41149 2.88198 2.4744 2.70965 2.60023 2.58382C2.72607 2.45799 2.89293 2.39508 3.10082 2.39508H5.90739C6.11528 2.39508 6.28488 2.33216 6.41618 2.20633C6.54748 2.0805 6.61313 1.90817 6.61313 1.68933C6.61313 1.48144 6.54748 1.31458 6.41618 1.18875C6.28488 1.06291 6.11528 1 5.90739 1H3.10082C2.50996 1 2.01212 1.19969 1.60727 1.59906C1.20242 1.99844 1 2.49902 1 3.10082V12.8992C1 13.49 1.20242 13.9879 1.60727 14.3927C2.01212 14.7976 2.50996 15 3.10082 15H5.90739C6.11528 15 6.28488 14.9371 6.41618 14.8113C6.54748 14.6854 6.61313 14.5131 6.61313 14.2943C6.61313 14.0864 6.54748 13.9195 6.41618 13.7937C6.28488 13.6678 6.11528 13.6049 5.90739 13.6049ZM14.9343 8.27081C14.9781 8.20516 15 8.1231 15 8.02462C15 7.92614 14.9781 7.8222 14.9343 7.71278C14.9015 7.67995 14.8796 7.64713 14.8687 7.6143C14.8578 7.58148 14.8359 7.54318 14.803 7.49941L11.3071 4.00352C11.1649 3.86127 11.0008 3.79015 10.8148 3.79015C10.6288 3.79015 10.4646 3.86127 10.3224 4.00352C10.1801 4.14576 10.109 4.30989 10.109 4.4959C10.109 4.68191 10.1801 4.84603 10.3224 4.98828L12.6366 7.30246H5.90739C5.69949 7.30246 5.52989 7.36538 5.39859 7.49121C5.26729 7.61704 5.20164 7.7839 5.20164 7.99179C5.20164 8.21063 5.26729 8.38296 5.39859 8.50879C5.52989 8.63462 5.69949 8.69754 5.90739 8.69754H12.6366L10.3224 11.0117C10.1801 11.154 10.109 11.3181 10.109 11.5041C10.109 11.6901 10.1801 11.8542 10.3224 11.9965C10.388 12.0621 10.4674 12.1114 10.5604 12.1442C10.6534 12.177 10.7382 12.1934 10.8148 12.1934C10.8804 12.1934 10.9597 12.177 11.0528 12.1442C11.1458 12.1114 11.2306 12.0621 11.3071 11.9965L14.803 8.48417C14.8359 8.45135 14.866 8.41852 14.8933 8.3857C14.9207 8.35287 14.9343 8.31458 14.9343 8.27081Z" fill="#2F2F2F"/>
</svg>
