<svg width="227" height="18" viewBox="0 0 227 18" fill="none" xmlns="http://www.w3.org/2000/svg">
<path d="M224.945 17.3124L222.99 12.6958H215.873L213.869 17.3124H211.814L219.507 0.147334L227 17.3124H224.945ZM216.6 10.9768H222.264L219.457 4.42019L216.6 10.9768Z" fill="#999999"/>
<path d="M207.601 0.933148H209.456V17.3124H207.601V0.933148Z" fill="#999999"/>
<path d="M205.101 2.65211H201.041V17.3124H199.187V2.65211H195.127V0.933148H205.101V2.65211Z" fill="#999999"/>
<path d="M182.585 0.933148V10.9768C182.585 11.5989 182.593 12.0819 182.61 12.4256C182.643 12.7694 182.76 13.1951 182.961 13.7026C183.178 14.1937 183.495 14.6112 183.913 14.955C184.665 15.5771 185.584 15.8881 186.67 15.8881C187.755 15.8881 188.674 15.5771 189.426 14.955C189.844 14.6112 190.153 14.1937 190.353 13.7026C190.571 13.1951 190.687 12.7694 190.704 12.4256C190.738 12.0819 190.754 11.5989 190.754 10.9768V0.933148H192.609V11.4679C192.609 13.1378 192.258 14.4475 191.556 15.397C191.038 16.0846 190.353 16.6248 189.501 17.0177C188.666 17.4106 187.722 17.6071 186.67 17.6071C185.617 17.6071 184.665 17.4106 183.813 17.0177C182.977 16.6248 182.301 16.0846 181.783 15.397C181.081 14.4475 180.73 13.1378 180.73 11.4679V0.933148H182.585Z" fill="#999999"/>
<path d="M168.88 0.933148V7.95634L175.997 0.933148H178.503L170.684 8.57026L178.754 17.3124H176.198L169.356 9.79809L168.88 10.2647V17.3124H167.026V0.933148H168.88Z" fill="#999999"/>
<path d="M162.613 17.3124L160.659 12.6958H153.542L151.537 17.3124H149.482L157.175 0.147334L164.668 17.3124H162.613ZM154.268 10.9768H159.932L157.125 4.42019L154.268 10.9768Z" fill="#999999"/>
<path d="M143.321 17.3124V10.2647L137.833 0.933148H139.988L144.248 8.25102L148.559 0.933148H150.714L145.175 10.2647V17.3124H143.321Z" fill="#999999"/>
<path d="M131.911 12.9904V11.1733H137.424V12.9904H131.911Z" fill="#999999"/>
<path d="M128.789 3.21692L127.31 4.17463C127.043 3.66712 126.717 3.25785 126.333 2.9468C125.832 2.57026 125.205 2.38199 124.453 2.38199C123.618 2.38199 122.941 2.61937 122.424 3.09414C121.906 3.55253 121.647 4.15826 121.647 4.91133C121.647 5.46794 121.856 5.9427 122.273 6.33561C122.607 6.66303 123.192 7.00682 124.027 7.36699L125.631 8.05457C126.817 8.56208 127.678 9.07777 128.212 9.60164C129.014 10.3875 129.415 11.3779 129.415 12.573C129.415 14.0628 128.914 15.2742 127.912 16.2074C126.909 17.1405 125.648 17.6071 124.128 17.6071C122.624 17.6071 121.413 17.1651 120.494 16.281C119.742 15.5607 119.224 14.5948 118.94 13.3834L120.745 12.8922C120.862 13.7108 121.196 14.4066 121.747 14.9795C122.365 15.5853 123.167 15.8881 124.153 15.8881C125.222 15.8881 126.049 15.5771 126.634 14.955C127.218 14.3165 127.511 13.5471 127.511 12.6467C127.511 11.8608 127.235 11.2224 126.684 10.7312C126.366 10.4366 125.698 10.06 124.679 9.60164L123.175 8.91405C122.156 8.45566 121.413 8.00546 120.945 7.56344C120.177 6.84311 119.792 5.95089 119.792 4.88677C119.792 3.6262 120.227 2.61119 121.095 1.84175C121.981 1.05594 123.109 0.663032 124.478 0.663032C125.514 0.663032 126.408 0.908598 127.16 1.39973C127.845 1.84175 128.388 2.44748 128.789 3.21692Z" fill="#999999"/>
<path d="M99.5368 17.3124H97.6322L100.414 0.0245562L106.829 13.8499L113.37 0L115.976 17.3124H114.072L112.493 5.91815L106.804 18L101.191 5.91815L99.5368 17.3124Z" fill="#999999"/>
<path d="M94.7899 0.933148V2.65211H87.9736V7.51432H94.5894V9.23328H87.9736V15.5934H94.7899V17.3124H86.1191V0.933148H94.7899Z" fill="#999999"/>
<path d="M83.6186 2.65211H79.5589V17.3124H77.7044V2.65211H73.6447V0.933148H83.6186V2.65211Z" fill="#999999"/>
<path d="M72.4773 3.21692L70.9988 4.17463C70.7315 3.66712 70.4057 3.25785 70.0214 2.9468C69.5202 2.57026 68.8937 2.38199 68.1419 2.38199C67.3066 2.38199 66.63 2.61937 66.1121 3.09414C65.5942 3.55253 65.3352 4.15826 65.3352 4.91133C65.3352 5.46794 65.544 5.9427 65.9617 6.33561C66.2958 6.66303 66.8806 7.00682 67.7159 7.36699L69.3197 8.05457C70.5059 8.56208 71.3663 9.07777 71.9009 9.60164C72.7028 10.3875 73.1038 11.3779 73.1038 12.573C73.1038 14.0628 72.6026 15.2742 71.6002 16.2074C70.5978 17.1405 69.3365 17.6071 67.8162 17.6071C66.3126 17.6071 65.1013 17.1651 64.1825 16.281C63.4307 15.5607 62.9128 14.5948 62.6287 13.3834L64.4331 12.8922C64.55 13.7108 64.8841 14.4066 65.4355 14.9795C66.0536 15.5853 66.8555 15.8881 67.8412 15.8881C68.9104 15.8881 69.7374 15.5771 70.3222 14.955C70.9069 14.3165 71.1992 13.5471 71.1992 12.6467C71.1992 11.8608 70.9236 11.2224 70.3723 10.7312C70.0548 10.4366 69.3866 10.06 68.3675 9.60164L66.8639 8.91405C65.8448 8.45566 65.1013 8.00546 64.6335 7.56344C63.865 6.84311 63.4808 5.95089 63.4808 4.88677C63.4808 3.6262 63.9151 2.61119 64.7839 1.84175C65.6693 1.05594 66.797 0.663032 68.167 0.663032C69.2028 0.663032 70.0966 0.908598 70.8484 1.39973C71.5334 1.84175 72.0763 2.44748 72.4773 3.21692Z" fill="#999999"/>
<path d="M54.5589 17.3124V10.2647L49.0707 0.933148H51.2259L55.4861 8.25102L59.7964 0.933148H61.9515L56.4133 10.2647V17.3124H54.5589Z" fill="#999999"/>
<path d="M47.7844 3.21692L46.3059 4.17463C46.0386 3.66712 45.7128 3.25785 45.3286 2.9468C44.8274 2.57026 44.2009 2.38199 43.4491 2.38199C42.6137 2.38199 41.9371 2.61937 41.4192 3.09414C40.9013 3.55253 40.6423 4.15826 40.6423 4.91133C40.6423 5.46794 40.8512 5.9427 41.2688 6.33561C41.603 6.66303 42.1877 7.00682 43.023 7.36699L44.6269 8.05457C45.813 8.56208 46.6734 9.07777 47.208 9.60164C48.01 10.3875 48.4109 11.3779 48.4109 12.573C48.4109 14.0628 47.9097 15.2742 46.9073 16.2074C45.9049 17.1405 44.6436 17.6071 43.1233 17.6071C41.6197 17.6071 40.4084 17.1651 39.4896 16.281C38.7378 15.5607 38.2199 14.5948 37.9359 13.3834L39.7402 12.8922C39.8571 13.7108 40.1913 14.4066 40.7426 14.9795C41.3607 15.5853 42.1626 15.8881 43.1483 15.8881C44.2176 15.8881 45.0445 15.5771 45.6293 14.955C46.214 14.3165 46.5064 13.5471 46.5064 12.6467C46.5064 11.8608 46.2307 11.2224 45.6794 10.7312C45.362 10.4366 44.6937 10.06 43.6746 9.60164L42.171 8.91405C41.1519 8.45566 40.4084 8.00546 39.9407 7.56344C39.1722 6.84311 38.7879 5.95089 38.7879 4.88677C38.7879 3.6262 39.2223 2.61119 40.091 1.84175C40.9765 1.05594 42.1042 0.663032 43.4741 0.663032C44.5099 0.663032 45.4037 0.908598 46.1555 1.39973C46.8405 1.84175 47.3835 2.44748 47.7844 3.21692Z" fill="#999999"/>
<path d="M29.866 17.3124V10.2647L24.3778 0.933148H26.533L30.7932 8.25102L35.1035 0.933148H37.2587L31.7204 10.2647V17.3124H29.866Z" fill="#999999"/>
<path d="M22.9138 0.933148V2.65211H16.0975V7.51432H22.7133V9.23328H16.0975V15.5934H22.9138V17.3124H14.2431V0.933148H22.9138Z" fill="#999999"/>
<path d="M1.85444 0.933148V7.95634L8.97147 0.933148H11.4775L3.65875 8.57026L11.7281 17.3124H9.17195L2.33058 9.79809L1.85444 10.2647V17.3124H0V0.933148H1.85444Z" fill="#999999"/>
</svg>
