<svg width="16" height="16" viewBox="0 0 16 16" fill="none" xmlns="http://www.w3.org/2000/svg">
<path d="M2.4 4.3C2.4 4 2.7 3.7 3 3.7H8.2C8.5 3.7 8.8 4 8.8 4.3C8.8 4.6 8.6 5 8.3 5H3C2.7 5 2.4 4.7 2.4 4.3ZM3 8.1H8.2C8.5 8.1 8.8 7.8 8.8 7.5C8.8 7.2 8.6 6.9 8.3 6.9H3C2.7 6.9 2.4 7.2 2.4 7.5C2.4 7.8 2.7 8.1 3 8.1ZM8.3 11.3C8.6 11.3 8.9 11 8.9 10.7C8.9 10.4 8.6 10 8.3 10H3C2.7 10 2.4 10.3 2.4 10.6C2.4 10.9 2.7 11.2 3 11.2H8.3V11.3ZM15.9 5.9V12.9C15.9 14.5 14.6 15.8 13 15.8H2.9C1.3 15.8 0 14.5 0 12.9V0.6C0 0.3 0.3 0 0.6 0H10.7C11 0 11.3 0.3 11.3 0.6V12.9C11.3 13.8 12 14.6 13 14.6C14 14.6 14.7 13.9 14.7 12.9V6.5H13.3C13 6.5 12.7 6.2 12.7 5.9C12.7 5.6 13 5.3 13.3 5.3H15.4C15.7 5.3 15.9 5.5 15.9 5.9ZM2.9 14.6H10.6C10.3 14.1 10.1 13.6 10.1 12.9V1.3H1.3V13C1.3 13.9 2 14.6 2.9 14.6Z" fill="#2F2F2F"/>
</svg>
