<svg width="16" height="16" viewBox="0 0 16 16" fill="none" xmlns="http://www.w3.org/2000/svg">
<path d="M15.2962 7.28885H8.72057V0.719515C8.72057 0.496408 8.65354 0.320714 8.51948 0.192428C8.38542 0.0641422 8.21226 0 8 0C7.78774 0 7.61458 0.0641422 7.48052 0.192428C7.34646 0.320714 7.27943 0.496408 7.27943 0.719515V7.28885H0.703812C0.49155 7.28885 0.321185 7.35299 0.19271 7.48128C0.0642362 7.60957 0 7.77968 0 7.99163C0 8.21474 0.0642362 8.39043 0.19271 8.51872C0.321185 8.64701 0.49155 8.71115 0.703812 8.71115H7.27943V15.2805C7.27943 15.4924 7.34646 15.6653 7.48052 15.7992C7.61458 15.9331 7.78774 16 8 16C8.21226 16 8.38542 15.9331 8.51948 15.7992C8.65354 15.6653 8.72057 15.4924 8.72057 15.2805V8.71115H15.2962C15.5085 8.71115 15.6788 8.64701 15.8073 8.51872C15.9358 8.39043 16 8.21474 16 7.99163C16 7.77968 15.9358 7.60957 15.8073 7.48128C15.6788 7.35299 15.5085 7.28885 15.2962 7.28885Z" fill="white"/>
</svg>
