<svg width="16" height="16" viewBox="0 0 16 16" fill="none" xmlns="http://www.w3.org/2000/svg">
<path d="M9.5032 13.533C9.33262 13.4264 9.15672 13.4025 8.97548 13.4611C8.79424 13.5197 8.65032 13.6343 8.54371 13.8049C8.44776 13.9755 8.3065 14.0794 8.11994 14.1167C7.93337 14.1541 7.7548 14.1407 7.58422 14.0768C7.52026 14.0448 7.46962 14.0075 7.4323 13.9648C7.39499 13.9222 7.35501 13.8689 7.31237 13.8049C7.21642 13.6343 7.07783 13.5304 6.89659 13.4931C6.71535 13.4558 6.53945 13.4691 6.36887 13.533C6.19829 13.6397 6.09168 13.7836 6.04904 13.9648C6.0064 14.1461 6.02239 14.322 6.09701 14.4925C6.19296 14.6631 6.29691 14.8044 6.40885 14.9163C6.52079 15.0283 6.66205 15.1375 6.83262 15.2441C7.0032 15.3401 7.17377 15.4094 7.34435 15.452C7.51493 15.4947 7.6855 15.516 7.85608 15.516C8.19723 15.516 8.52772 15.4307 8.84755 15.2601C9.16738 15.0896 9.42857 14.8337 9.63113 14.4925C9.80171 14.322 9.86567 14.1461 9.82303 13.9648C9.78038 13.7836 9.67377 13.6397 9.5032 13.533ZM14.8284 10.7345C14.4446 10.7345 14.1194 10.6013 13.8529 10.3348C13.5864 10.0682 13.4531 9.7484 13.4531 9.37527V5.95309C13.4531 5.20682 13.3092 4.5032 13.0213 3.84222C12.7335 3.18123 12.3444 2.60288 11.8539 2.10714C11.3635 1.6114 10.7878 1.21962 10.1269 0.93177C9.45522 0.643922 8.74627 0.5 8 0.5C7.25373 0.5 6.54478 0.643922 5.87313 0.93177C5.21215 1.21962 4.63646 1.6114 4.14606 2.10714C3.65565 2.60288 3.26653 3.18123 2.97868 3.84222C2.69083 4.5032 2.54691 5.20682 2.54691 5.95309V9.37527C2.54691 9.7484 2.41365 10.0682 2.14712 10.3348C1.8806 10.6013 1.55544 10.7345 1.17164 10.7345C0.969082 10.7345 0.806504 10.7958 0.683902 10.9184C0.5613 11.041 0.5 11.209 0.5 11.4222C0.5 11.6247 0.5613 11.7873 0.683902 11.9099C0.806504 12.0325 0.969082 12.0938 1.17164 12.0938H14.8284C15.0309 12.0938 15.1935 12.0325 15.3161 11.9099C15.4387 11.7873 15.5 11.6247 15.5 11.4222C15.5 11.209 15.4387 11.041 15.3161 10.9184C15.1935 10.7958 15.0309 10.7345 14.8284 10.7345ZM3.57036 10.7345C3.66631 10.532 3.74627 10.3134 3.81023 10.0789C3.8742 9.84435 3.90618 9.60981 3.90618 9.37527V5.95309C3.90618 5.39872 4.01279 4.871 4.22601 4.36994C4.43923 3.86887 4.73241 3.43444 5.10554 3.06663C5.47868 2.69883 5.91578 2.40832 6.41684 2.1951C6.90725 1.97121 7.43497 1.85928 8 1.85928C8.56503 1.85928 9.09275 1.97121 9.58316 2.1951C10.0842 2.40832 10.5213 2.69883 10.8945 3.06663C11.2676 3.43444 11.5608 3.86887 11.774 4.36994C11.9872 4.871 12.0938 5.39872 12.0938 5.95309V9.37527C12.0938 9.60981 12.1258 9.84435 12.1898 10.0789C12.2537 10.3134 12.3337 10.532 12.4296 10.7345H3.57036Z" fill="#2F2F2F"/>
</svg>
