<svg width="16" height="16" viewBox="0 0 16 16" fill="none" xmlns="http://www.w3.org/2000/svg">
<path d="M15.2 15.9H0.6C0.3 15.9 0 15.6 0 15.3V0.6C0 0.3 0.3 0 0.6 0H15.2C15.5 0 15.8 0.3 15.8 0.6V15.2C15.9 15.6 15.6 15.9 15.2 15.9ZM1.3 14.6H14.6V1.3H1.3V14.6ZM4.8 7L7.3 4.5C7.5 4.3 7.5 3.9 7.3 3.6C7.1 3.4 6.7 3.4 6.4 3.6L4.4 5.7L3.8 5.1C3.6 4.9 3.2 4.9 2.9 5.1C2.7 5.4 2.7 5.8 2.9 6L3.9 7C4 7.1 4.2 7.2 4.3 7.2C4.4 7.2 4.7 7.1 4.8 7ZM13.1 5.9C13.1 5.6 12.8 5.3 12.5 5.3H8.5C8.2 5.3 7.9 5.6 7.9 5.9C7.9 6.2 8.2 6.5 8.5 6.5H12.5C12.8 6.6 13.1 6.3 13.1 5.9ZM4.8 11.7L7.3 9.2C7.5 9 7.5 8.6 7.3 8.3C7.1 8 6.7 8 6.4 8.3L4.3 10.4L3.8 9.8C3.6 9.6 3.2 9.6 2.9 9.8C2.7 10 2.7 10.4 2.9 10.7L3.9 11.7C4 11.8 4.2 11.9 4.3 11.9C4.4 11.9 4.7 11.8 4.8 11.7ZM13.1 10.6C13.1 10.3 12.8 10 12.5 10H8.5C8.2 10 7.9 10.3 7.9 10.6C7.9 10.9 8.2 11.2 8.5 11.2H12.5C12.8 11.2 13.1 10.9 13.1 10.6Z" fill="#2F2F2F"/>
</svg>
