<svg width="16" height="16" viewBox="0 0 16 16" fill="none" xmlns="http://www.w3.org/2000/svg">
<path d="M8 5.34375C7.27083 5.34375 6.64323 5.60416 6.11719 6.125C5.59114 6.64584 5.32812 7.27083 5.32812 8C5.32812 8.73959 5.59114 9.36979 6.11719 9.89062C6.64323 10.4115 7.27083 10.6719 8 10.6719C8.72917 10.6719 9.35677 10.4115 9.88281 9.89062C10.4089 9.36979 10.6719 8.73959 10.6719 8C10.6719 7.27083 10.4089 6.64584 9.88281 6.125C9.35677 5.60416 8.72917 5.34375 8 5.34375ZM8 9.34375C7.63542 9.34375 7.32292 9.21354 7.0625 8.95312C6.80208 8.69271 6.67188 8.375 6.67188 8C6.67188 7.63542 6.80208 7.32292 7.0625 7.0625C7.32292 6.80208 7.63542 6.67188 8 6.67188C8.36458 6.67188 8.67708 6.80208 8.9375 7.0625C9.19792 7.32292 9.32812 7.63542 9.32812 8C9.32812 8.375 9.19792 8.69271 8.9375 8.95312C8.67708 9.21354 8.36458 9.34375 8 9.34375ZM13.5312 10.2656C13.5625 10.2031 13.6146 10.1432 13.6875 10.0859C13.7604 10.0286 13.8646 10 14 10C14.5625 10 15.0365 9.8099 15.4219 9.42969C15.8073 9.04948 16 8.57292 16 8C16 7.4375 15.8073 6.96354 15.4219 6.57812C15.0365 6.19271 14.5625 6 14 6H13.8594C13.7969 6 13.7344 5.98438 13.6719 5.95312C13.6094 5.92188 13.5625 5.875 13.5312 5.8125C13.5312 5.77083 13.5286 5.74479 13.5234 5.73438C13.5182 5.72396 13.5 5.70313 13.4688 5.67188C13.4375 5.60938 13.4271 5.52865 13.4375 5.42969C13.4479 5.33073 13.5 5.23438 13.5938 5.14062C14 4.73437 14.2031 4.25782 14.2031 3.71094C14.2031 3.16406 14 2.70834 13.5938 2.34375C13.3958 2.13542 13.1797 1.98177 12.9453 1.88281C12.7109 1.78385 12.4635 1.73438 12.2031 1.73438C11.9323 1.73438 11.6693 1.78385 11.4141 1.88281C11.1589 1.98177 10.9323 2.13542 10.7344 2.34375C10.6719 2.40625 10.5938 2.4401 10.5 2.44531C10.4062 2.45052 10.3281 2.4375 10.2656 2.40625C10.2031 2.40625 10.1432 2.36458 10.0859 2.28125C10.0286 2.19792 10 2.10417 10 2C10 1.4375 9.80729 0.963544 9.42188 0.578125C9.03646 0.192707 8.5625 0 8 0C7.4375 0 6.96354 0.192707 6.57812 0.578125C6.19271 0.963544 6 1.4375 6 2V2.14062C6 2.20313 5.98438 2.26562 5.95312 2.32812C5.92188 2.39063 5.86979 2.4375 5.79688 2.46875C5.76562 2.46875 5.74479 2.47135 5.73438 2.47656C5.72396 2.48177 5.70313 2.5 5.67188 2.53125C5.59896 2.57292 5.51563 2.57812 5.42188 2.54688C5.32812 2.51562 5.23438 2.46875 5.14062 2.40625C4.73437 2.01041 4.25782 1.8125 3.71094 1.8125C3.16406 1.8125 2.70313 2.01041 2.32812 2.40625C1.93229 2.80209 1.73698 3.27864 1.74219 3.83594C1.7474 4.39323 1.96875 4.86979 2.40625 5.26562C2.46875 5.33854 2.5026 5.42187 2.50781 5.51562C2.51302 5.60938 2.5 5.70833 2.46875 5.8125C2.4375 5.875 2.3776 5.9349 2.28906 5.99219C2.20052 6.04948 2.10417 6.07812 2 6.07812C1.4375 6.07812 0.963544 6.26823 0.578125 6.64844C0.192707 7.02865 0 7.50521 0 8.07812C0 8.64063 0.192707 9.11458 0.578125 9.5C0.963544 9.88542 1.4375 10.0781 2 10.0781H2.14062C2.23438 10.0781 2.3151 10.1042 2.38281 10.1562C2.45052 10.2083 2.5 10.2708 2.53125 10.3438C2.5625 10.4062 2.57292 10.4844 2.5625 10.5781C2.55208 10.6719 2.5 10.7708 2.40625 10.875C2.19792 11.0729 2.04427 11.2891 1.94531 11.5234C1.84635 11.7578 1.79688 12.0052 1.79688 12.2656C1.79688 12.5365 1.84635 12.7891 1.94531 13.0234C2.04427 13.2578 2.19792 13.474 2.40625 13.6719C2.80209 14.0677 3.27864 14.263 3.83594 14.2578C4.39323 14.2526 4.86979 14.0365 5.26562 13.6094C5.32813 13.5365 5.40885 13.4974 5.50781 13.4922C5.60677 13.487 5.70312 13.5 5.79688 13.5312C5.90104 13.5729 5.97135 13.6302 6.00781 13.7031C6.04427 13.776 6.0625 13.875 6.0625 14C6.0625 14.5729 6.25521 15.0495 6.64062 15.4297C7.02604 15.8099 7.5 16 8.0625 16C8.63542 16 9.11198 15.8099 9.49219 15.4297C9.8724 15.0495 10.0625 14.5729 10.0625 14V13.875C10.0625 13.7708 10.0911 13.6849 10.1484 13.6172C10.2057 13.5495 10.2656 13.5 10.3281 13.4688C10.401 13.4375 10.4844 13.4271 10.5781 13.4375C10.6719 13.4479 10.7656 13.5052 10.8594 13.6094C11.2656 14.0052 11.7422 14.2031 12.2891 14.2031C12.8359 14.2031 13.2969 14.0052 13.6719 13.6094C14.0677 13.2031 14.263 12.724 14.2578 12.1719C14.2526 11.6198 14.0313 11.1406 13.5938 10.7344C13.5625 10.6719 13.5365 10.5964 13.5156 10.5078C13.4948 10.4193 13.5 10.3385 13.5312 10.2656ZM12.3281 9.73438C12.2031 10.0677 12.1719 10.4089 12.2344 10.7578C12.2969 11.1068 12.4635 11.4323 12.7344 11.7344C12.7969 11.8073 12.8464 11.8802 12.8828 11.9531C12.9193 12.026 12.9375 12.1094 12.9375 12.2031C12.9375 12.3073 12.9193 12.3958 12.8828 12.4688C12.8464 12.5417 12.7969 12.6094 12.7344 12.6719C12.6719 12.7344 12.6042 12.7839 12.5312 12.8203C12.4583 12.8568 12.3698 12.875 12.2656 12.875C12.1615 12.875 12.0729 12.8542 12 12.8125C11.9271 12.7708 11.8385 12.7031 11.7344 12.6094C11.4635 12.3385 11.1563 12.1719 10.8125 12.1094C10.4687 12.0469 10.1302 12.099 9.79688 12.2656C9.46354 12.401 9.20313 12.6198 9.01562 12.9219C8.82812 13.224 8.73438 13.5417 8.73438 13.875V14C8.73438 14.2083 8.67188 14.3724 8.54688 14.4922C8.42187 14.612 8.26042 14.6719 8.0625 14.6719C7.86458 14.6719 7.70573 14.612 7.58594 14.4922C7.46615 14.3724 7.40625 14.2083 7.40625 14C7.40625 14 7.40625 13.9896 7.40625 13.9688C7.40625 13.9479 7.40625 13.9375 7.40625 13.9375C7.40625 13.5729 7.29948 13.2474 7.08594 12.9609C6.8724 12.6745 6.59896 12.4688 6.26562 12.3438C6.16146 12.2708 6.04688 12.2292 5.92188 12.2188C5.79687 12.2083 5.66667 12.2031 5.53125 12.2031C5.30208 12.2031 5.07552 12.25 4.85156 12.3438C4.6276 12.4375 4.43229 12.5677 4.26562 12.7344C4.13021 12.8698 3.97396 12.9375 3.79688 12.9375C3.61979 12.9375 3.46354 12.8698 3.32812 12.7344C3.26562 12.6719 3.21875 12.6042 3.1875 12.5312C3.15625 12.4583 3.14062 12.3698 3.14062 12.2656C3.14062 12.1719 3.15885 12.0859 3.19531 12.0078C3.23177 11.9297 3.30208 11.8385 3.40625 11.7344C3.66667 11.474 3.82812 11.1719 3.89062 10.8281C3.95313 10.4844 3.90104 10.1458 3.73438 9.8125C3.59896 9.47917 3.38281 9.21615 3.08594 9.02344C2.78906 8.83073 2.47396 8.73438 2.14062 8.73438H2C1.80208 8.73438 1.64063 8.67448 1.51562 8.55469C1.39062 8.4349 1.32813 8.27604 1.32813 8.07812C1.32813 7.86979 1.39062 7.70573 1.51562 7.58594C1.64063 7.46615 1.80208 7.40625 2 7.40625C2 7.40625 2.01042 7.40625 2.03125 7.40625C2.05208 7.40625 2.0625 7.40625 2.0625 7.40625C2.42709 7.40625 2.7526 7.29948 3.03906 7.08594C3.32552 6.8724 3.53646 6.59896 3.67188 6.26562C3.79688 5.93229 3.82813 5.59115 3.76562 5.24219C3.70312 4.89323 3.53646 4.56771 3.26562 4.26562C3.13021 4.14062 3.0625 3.98698 3.0625 3.80469C3.0625 3.6224 3.13021 3.46875 3.26562 3.34375C3.40104 3.20833 3.5599 3.14323 3.74219 3.14844C3.92448 3.15365 4.09896 3.23958 4.26562 3.40625C4.49479 3.63542 4.77604 3.78385 5.10938 3.85156C5.44271 3.91927 5.76042 3.90625 6.0625 3.8125C6.09375 3.8125 6.1276 3.80729 6.16406 3.79688C6.20052 3.78646 6.23438 3.76562 6.26562 3.73438C6.59896 3.59896 6.85937 3.38281 7.04688 3.08594C7.23438 2.78906 7.32812 2.47396 7.32812 2.14062V2C7.32812 1.80208 7.39062 1.64323 7.51562 1.52344C7.64063 1.40365 7.80208 1.34375 8 1.34375C8.19792 1.34375 8.35937 1.40625 8.48438 1.53125C8.60938 1.65625 8.67188 1.83854 8.67188 2.07812C8.67188 2.44271 8.76562 2.76562 8.95312 3.04688C9.14063 3.32813 9.40104 3.53646 9.73438 3.67188C10.0677 3.80729 10.4089 3.84115 10.7578 3.77344C11.1068 3.70573 11.4323 3.53646 11.7344 3.26562C11.7969 3.20312 11.8646 3.15625 11.9375 3.125C12.0104 3.09375 12.099 3.07812 12.2031 3.07812C12.2969 3.07812 12.3802 3.09375 12.4531 3.125C12.526 3.15625 12.599 3.20312 12.6719 3.26562C12.7969 3.40104 12.8568 3.5599 12.8516 3.74219C12.8464 3.92448 12.7604 4.09896 12.5938 4.26562C12.3646 4.50521 12.2161 4.79167 12.1484 5.125C12.0807 5.45833 12.099 5.77604 12.2031 6.07812C12.2031 6.10938 12.2057 6.14062 12.2109 6.17188C12.2161 6.20313 12.2344 6.23438 12.2656 6.26562C12.401 6.59896 12.6172 6.86198 12.9141 7.05469C13.2109 7.2474 13.526 7.34375 13.8594 7.34375H14C14.1979 7.34375 14.3594 7.40365 14.4844 7.52344C14.6094 7.64323 14.6719 7.80208 14.6719 8C14.6719 8.20833 14.6068 8.3724 14.4766 8.49219C14.3464 8.61198 14.1667 8.67188 13.9375 8.67188C13.6042 8.67188 13.2865 8.76562 12.9844 8.95312C12.6823 9.14063 12.4635 9.40104 12.3281 9.73438Z" fill="#2F2F2F"/>
</svg>
