<svg width="16" height="16" viewBox="0 0 16 16" fill="none" xmlns="http://www.w3.org/2000/svg">
<path d="M11.711 11.4C12.011 11.7 11.911 12.2 11.611 12.5C10.611 13.3 9.31102 13.8 8.01102 13.8C4.91103 13.8 2.41103 11.4 2.31103 8.29999H0.911026C0.811026 8.29999 0.740968 8.19732 0.711026 8.09999C0.681083 8.00265 0.711026 7.89999 0.811026 7.79999L2.81103 5.79999C2.91103 5.69999 3.11103 5.69999 3.21103 5.79999L5.21102 7.79999C5.31102 7.89999 5.31102 7.99999 5.31102 8.09999C5.31102 8.19999 5.11102 8.29999 4.91102 8.29999H3.71103C3.81103 10.5 5.71102 12.3 7.91102 12.3C8.91102 12.3 9.81102 12 10.611 11.3C11.011 11.1 11.411 11.1 11.711 11.4ZM15.3321 7.95233C15.2735 7.84686 15.111 7.79999 15.011 7.79999H13.711C13.611 4.69999 11.011 2.29999 7.91102 2.29999C6.61102 2.29999 5.31103 2.79999 4.31103 3.59999C4.01103 3.89999 3.91103 4.29999 4.21103 4.69999C4.51103 4.99999 4.91102 5.09999 5.31102 4.79999C6.11102 4.19999 7.01102 3.79999 8.01102 3.79999C10.311 3.79999 12.111 5.59999 12.211 7.79999H11.011C10.911 7.79999 10.811 7.89999 10.811 7.99999C10.811 8.09999 10.811 8.19999 10.911 8.29999L12.911 10.3C12.911 10.3 13.011 10.4 13.111 10.4C13.211 10.4 13.211 10.4 13.311 10.3L15.311 8.29999C15.4337 8.15936 15.3907 8.0578 15.3321 7.95233Z" fill="#2F2F2F"/>
</svg>
